<?xml version="1.0" standalone="no"?>
<!DOCTYPE svg PUBLIC "-//W3C//DTD SVG 20010904//EN"
 "http://www.w3.org/TR/2001/REC-SVG-20010904/DTD/svg10.dtd">
<svg version="1.0" xmlns="http://www.w3.org/2000/svg"
 width="500.000000pt" height="500.000000pt" viewBox="0 0 500.000000 500.000000"
 preserveAspectRatio="xMidYMid meet">

<g transform="translate(0.000000,500.000000) scale(0.100000,-0.100000)"
fill="#000000" stroke="none">
<path d="M1026 2245 c-4 -248 -5 -493 -2 -545 13 -185 44 -287 120 -394 84
-118 180 -187 326 -234 l85 -27 945 0 945 0 75 23 c112 35 188 80 260 152 84
84 132 164 166 275 26 89 26 95 28 402 1 238 -2 315 -11 324 -11 11 -13 7 -13
-18 0 -26 -3 -30 -20 -26 -11 3 -20 11 -20 19 0 11 -40 11 -60 -1 -4 -2 -19 3
-34 11 -16 7 -36 14 -46 14 -10 0 -20 9 -23 21 -7 27 -33 19 -29 -9 4 -26 -12
-36 -27 -18 -8 10 -9 16 -1 21 22 13 8 25 -29 25 -22 0 -42 -6 -45 -12 -5 -10
-7 -10 -12 0 -7 14 -81 17 -86 2 -2 -6 -8 -6 -18 0 -13 8 -12 10 3 10 9 0 17
5 17 10 0 6 -12 10 -26 10 -14 0 -23 4 -19 10 4 6 -11 10 -37 10 -28 0 -38 -3
-30 -9 27 -17 -37 -22 -69 -6 -22 12 -65 17 -165 18 -74 1 -134 5 -134 10 0 4
10 7 23 7 17 0 19 2 7 10 -8 5 -19 5 -25 1 -5 -5 -28 -11 -50 -14 -24 -4 -32
-3 -21 2 19 7 18 8 -4 14 -16 4 -27 1 -33 -8 -4 -8 -13 -15 -20 -15 -22 0 -40
17 -32 30 6 9 9 9 16 -1 7 -11 9 -11 9 1 0 13 1 13 10 0 8 -13 10 -13 10 2 0
9 6 19 13 22 6 3 -13 4 -44 2 -37 -3 -66 1 -84 10 -16 8 -30 12 -33 9 -3 -3
-1 -5 4 -5 5 0 10 -9 11 -20 1 -11 0 -20 -1 -20 -2 0 -13 9 -26 20 -13 11 -29
20 -37 20 -8 0 -12 4 -9 9 8 13 -35 21 -55 10 -28 -14 -36 -10 -14 7 12 10 14
14 5 11 -8 -2 -24 0 -35 6 -18 9 -19 9 -6 -7 18 -22 6 -33 -14 -12 -17 17 -35
21 -35 9 0 -5 -20 -8 -43 -8 -37 0 -41 2 -28 12 24 19 -3 32 -46 23 -38 -9
-97 -3 -126 12 -12 6 -23 6 -31 -1 -10 -8 -17 -7 -26 4 -7 8 -23 15 -37 15
-13 0 -35 7 -48 16 -14 9 -25 12 -25 6 0 -15 -176 -14 -214 2 -18 8 -47 12
-65 10 -18 -2 -45 3 -60 11 -22 11 -61 14 -167 11 -144 -2 -168 0 -158 15 3 5
3 9 -1 9 -11 0 -120 -58 -140 -75 -11 -9 -14 -13 -6 -9 9 5 12 3 7 -5 -4 -6
-11 -9 -16 -6 -5 3 -21 0 -36 -5 -24 -9 -25 -9 -14 5 7 8 16 12 21 9 5 -3 9 0
9 7 0 7 9 23 21 35 20 21 19 51 -2 39 -5 -4 -9 4 -9 17 0 21 -4 23 -37 20
-123 -10 -173 -8 -173 5 0 7 -9 13 -20 13 -14 0 -20 7 -20 21 0 12 -8 23 -19
26 -11 3 -21 15 -23 27 -2 11 -7 -182 -12 -429z m719 255 c3 -5 1 -10 -4 -10
-6 0 -11 5 -11 10 0 6 2 10 4 10 3 0 8 -4 11 -10z m-337 -14 c-10 -7 -18 -22
-19 -32 0 -18 -1 -18 -8 1 -6 15 -3 23 13 32 28 16 35 16 14 -1z m1269 -109
c-23 -7 -35 -16 -30 -21 4 -5 3 -6 -4 -2 -29 17 -5 32 52 34 11 0 3 -5 -18
-11z m-70 -3 c-3 -3 -12 -4 -19 -1 -8 3 -5 6 6 6 11 1 17 -2 13 -5z m142 -8
c-2 -2 -22 -6 -44 -9 -27 -4 -35 -3 -25 3 14 9 79 15 69 6z m241 -82 c0 -2
-12 -4 -26 -4 -14 0 -23 4 -20 9 6 8 46 4 46 -5z m-310 -219 l0 -215 25 -10
c21 -8 25 -16 25 -50 l0 -40 -40 0 c-55 0 -95 23 -109 61 -7 20 -11 116 -11
250 l0 219 55 0 55 0 0 -215z m-1060 172 c55 -27 80 -72 80 -144 0 -106 -62
-163 -187 -171 l-62 -4 -3 -82 -3 -81 -50 0 -50 0 -3 253 -2 254 122 -4 c92
-2 132 -7 158 -21z m1680 -41 c0 -2 -7 -7 -16 -10 -8 -3 -12 -2 -9 4 6 10 25
14 25 6z m153 -23 c-7 -2 -19 -2 -25 0 -7 3 -2 5 12 5 14 0 19 -2 13 -5z m-56
-9 c-3 -3 -12 -4 -19 -1 -8 3 -5 6 6 6 11 1 17 -2 13 -5z m480 -36 c-3 -8 -6
-5 -6 6 -1 11 2 17 5 13 3 -3 4 -12 1 -19z m-1871 -17 c56 -34 87 -86 92 -151
6 -76 -10 -121 -57 -163 -76 -69 -199 -66 -268 5 -40 41 -53 76 -53 138 0 80
28 129 95 171 42 26 148 26 191 0z m426 -10 c128 -81 112 -288 -27 -341 -43
-17 -126 -15 -160 3 -68 35 -108 99 -108 172 1 122 72 194 194 195 44 0 64 -6
101 -29z m455 -105 c2 -138 8 -156 52 -156 31 0 42 7 64 40 14 19 17 48 17
138 l0 113 53 -3 52 -3 -1 -65 c0 -36 -1 -120 -2 -187 l-2 -123 -45 0 c-41 0
-45 2 -45 25 l0 24 -36 -24 c-73 -49 -154 -38 -194 27 -18 29 -20 50 -20 181
l0 148 53 -3 52 -3 2 -129z m433 102 c1 -27 2 -30 11 -15 31 52 140 63 206 20
23 -15 40 -30 37 -35 -3 -4 0 -8 5 -8 6 0 10 -3 9 -7 -1 -5 4 -26 11 -47 47
-138 -67 -294 -189 -257 -23 7 -49 21 -58 32 -16 19 -17 15 -22 -78 l-5 -98
-47 -1 -47 -2 -3 254 c-2 140 -1 259 0 264 2 6 24 10 48 10 43 0 44 -1 44 -32z"/>
<path d="M1457 2153 c-3 -5 -4 -35 -3 -68 l1 -60 47 -3 c37 -2 51 1 67 17 29
29 28 85 -1 105 -23 16 -103 22 -111 9z"/>
<path d="M1873 2030 c-30 -12 -43 -41 -43 -95 0 -75 60 -117 122 -84 44 24 55
111 20 156 -20 25 -68 36 -99 23z"/>
<path d="M2292 2030 c-24 -10 -52 -64 -52 -101 0 -27 37 -78 64 -88 31 -12 75
7 91 40 25 47 19 96 -14 130 -31 30 -50 34 -89 19z"/>
<path d="M3380 2027 c-13 -7 -31 -24 -38 -37 -16 -31 -10 -104 10 -124 39 -38
115 -27 137 20 39 86 -34 180 -109 141z"/>
<path d="M1455 2609 c-4 -6 -4 -13 -1 -16 3 -4 6 -1 6 5 0 6 8 13 18 15 15 4
15 5 0 6 -9 0 -20 -4 -23 -10z"/>
<path d="M1648 2603 c7 -3 16 -2 19 1 4 3 -2 6 -13 5 -11 0 -14 -3 -6 -6z"/>
<path d="M1208 2593 c7 -3 16 -2 19 1 4 3 -2 6 -13 5 -11 0 -14 -3 -6 -6z"/>
<path d="M1416 2583 c-4 -4 -13 -8 -19 -9 -7 0 -21 -2 -32 -3 -17 -1 -18 -3
-5 -11 21 -13 33 -12 24 2 -5 7 -2 9 7 6 8 -3 23 0 34 8 10 8 14 14 9 14 -6 0
-14 -3 -18 -7z"/>
<path d="M1513 2545 c0 -8 7 -15 15 -15 12 0 12 3 2 15 -7 8 -13 15 -15 15 -1
0 -2 -7 -2 -15z"/>
<path d="M2401 2504 c0 -11 3 -14 6 -6 3 7 2 16 -1 19 -3 4 -6 -2 -5 -13z"/>
<path d="M2748 2463 c6 -2 18 -2 25 0 6 3 1 5 -13 5 -14 0 -19 -2 -12 -5z"/>
<path d="M2408 2443 c7 -3 16 -2 19 1 4 3 -2 6 -13 5 -11 0 -14 -3 -6 -6z"/>
<path d="M2870 2440 c8 -5 24 -10 34 -10 26 0 18 6 -19 14 -22 5 -26 4 -15 -4z"/>
<path d="M2955 2429 c-18 -4 4 -7 55 -8 47 0 91 3 98 7 15 10 -108 10 -153 1z"/>
<path d="M3338 2393 c7 -3 16 -2 19 1 4 3 -2 6 -13 5 -11 0 -14 -3 -6 -6z"/>
<path d="M3238 2373 c6 -2 18 -2 25 0 6 3 1 5 -13 5 -14 0 -19 -2 -12 -5z"/>
<path d="M3103 2363 c9 -2 23 -2 30 0 6 3 -1 5 -18 5 -16 0 -22 -2 -12 -5z"/>
<path d="M2978 2353 c12 -2 32 -2 45 0 12 2 2 4 -23 4 -25 0 -35 -2 -22 -4z"/>
</g>
</svg>
